<svg xmlns="http://www.w3.org/2000/svg" width="24" height="24" viewBox="0 0 24 24"><g transform="translate(-749 -212)"><path d="M0,0H24V24H0Z" transform="translate(749 212)" fill="none" opacity="0"/><path d="M18.291-17.828a4.7,4.7,0,0,1-1.12.13,3.248,3.248,0,0,1-1.739-.454,2.923,2.923,0,0,1-1.126-1.285,4.5,4.5,0,0,1-.389-1.927,7.6,7.6,0,0,1,.46-2.522l1.6.636a6.125,6.125,0,0,0-.389,1.933A1.847,1.847,0,0,0,16-20.032a1.488,1.488,0,0,0,1.161.448,3.606,3.606,0,0,0,.743-.094q.79-.177,1.161-.3a1.209,1.209,0,0,0,.536-.312.761.761,0,0,0,.165-.519q0-.083-.024-.295l-.483-3.241,1.662-.271.483,3.253a4.035,4.035,0,0,1,.047.637,2.34,2.34,0,0,1-.766,1.874A5.542,5.542,0,0,1,18.291-17.828ZM16.664-25.56h1.674v1.674H16.664ZM16.85-8.822a3,3,0,0,1-1.4-.277,1.7,1.7,0,0,1-.778-.878,4.859,4.859,0,0,1-.3-1.627l-.212-5.422,1.7-.094.212,5.516a4.627,4.627,0,0,0,.059.631.26.26,0,0,0,.177.206,2.026,2.026,0,0,0,.542.047h.118l.106.955-.106.943Zm0-1.9h.13a1.039,1.039,0,0,0,.471-.106.725.725,0,0,0,.318-.295l.908-1.756a1.988,1.988,0,0,1,.79-.831,2.2,2.2,0,0,1,1.12-.3,2.149,2.149,0,0,1,1.014.248,2.1,2.1,0,0,1,1.155,1.992,4.8,4.8,0,0,1-.5,1.968,1.771,1.771,0,0,1-.631.766,1.553,1.553,0,0,1-.878.271,1.649,1.649,0,0,1-.766-.189L18.736-9.6a2.277,2.277,0,0,1-1.756.778h-.13Zm4.137.141.165-.354a1.428,1.428,0,0,0,.13-.578.655.655,0,0,0-.365-.648.676.676,0,0,0-.306-.071.7.7,0,0,0-.383.118.8.8,0,0,0-.289.342l-.271.53Zm3.6,2.923q1.285-.271,1.821-.418a2.77,2.77,0,0,0,.772-.306.565.565,0,0,0,.259-.442H26.268a2.426,2.426,0,0,1-1.244-.312,2.117,2.117,0,0,1-.831-.89,2.918,2.918,0,0,1-.295-1.344,2.954,2.954,0,0,1,.318-1.35,2.605,2.605,0,0,1,.878-1.008,2.2,2.2,0,0,1,1.255-.377,2.151,2.151,0,0,1,1.22.365,2.763,2.763,0,0,1,.9,1.008,3.994,3.994,0,0,1,.442,1.456l.059.554h.66l.106.955-.106.943h-.483a2.289,2.289,0,0,1-.424,1.45,2.978,2.978,0,0,1-1.3.884,16.85,16.85,0,0,1-2.493.684ZM25.6-11.333a.648.648,0,0,0,.141.477.776.776,0,0,0,.53.136h.99l-.035-.354a1.6,1.6,0,0,0-.289-.849.732.732,0,0,0-.6-.283.661.661,0,0,0-.542.248A.961.961,0,0,0,25.6-11.333Zm3.913.613h1.827a1.507,1.507,0,0,0,.678-.112.421.421,0,0,0,.206-.407,1.558,1.558,0,0,0-.071-.413l-.46-1.756,1.627-.483L33.8-12.04a3.2,3.2,0,0,1,.118.86,2.334,2.334,0,0,1-.324,1.232,2.179,2.179,0,0,1-.914.831,2.964,2.964,0,0,1-1.344.295H29.51Zm.8-5.681h3.065v1.473H30.311Z" transform="translate(737.082 239.683)" fill="#0b032d"/></g></svg>